<svg id="Lineal_Color" height="512" viewBox="0 0 64 64" width="512" xmlns="http://www.w3.org/2000/svg" data-name="Lineal Color"><path d="m32 15a10.011 10.011 0 0 1 10 10v10h-4v-10a6 6 0 0 0 -12 0v10h-4v-10a10.011 10.011 0 0 1 10-10z" fill="#d1d3d4"/><path d="m32.98 15.05a10.026 10.026 0 0 0 -8.98 9.95v10h-2v-10a10.016 10.016 0 0 1 10-10c.33 0 .66.02.98.05z" fill="#fff"/><path d="m21 30h22a0 0 0 0 1 0 0v17a2 2 0 0 1 -2 2h-18a2 2 0 0 1 -2-2v-17a0 0 0 0 1 0 0z" fill="#fbb040"/><circle cx="32" cy="37" fill="#bc8430" r="2"/><g fill="#231f20"><path d="m43 30v17a2.006 2.006 0 0 1 -2 2h-9v-19z" opacity=".2"/><path d="m38 31a1 1 0 0 1 -1-1v-5a5 5 0 0 0 -10 0v5a1 1 0 0 1 -2 0v-5a7 7 0 0 1 14 0v5a1 1 0 0 1 -1 1z"/><path d="m42 31a1 1 0 0 1 -1-1v-5a9 9 0 0 0 -18 0v5a1 1 0 0 1 -2 0v-5a11 11 0 0 1 22 0v5a1 1 0 0 1 -1 1z"/><path d="m41 50h-18a3 3 0 0 1 -3-3v-17a1 1 0 0 1 1-1h22a1 1 0 0 1 1 1v17a3 3 0 0 1 -3 3zm-19-19v16a1 1 0 0 0 1 1h18a1 1 0 0 0 1-1v-16z"/><path d="m32 40a3 3 0 1 1 3-3 3 3 0 0 1 -3 3zm0-4a1 1 0 1 0 1 1 1 1 0 0 0 -1-1z"/><path d="m32 44a1 1 0 0 1 -1-1v-4a1 1 0 0 1 2 0v4a1 1 0 0 1 -1 1z"/><path d="m32 63a31 31 0 1 1 31-31 31.035 31.035 0 0 1 -31 31zm0-60a29 29 0 1 0 29 29 29.033 29.033 0 0 0 -29-29z"/></g></svg>